<svg xmlns="http://www.w3.org/2000/svg">

    <symbol id="logo"  viewBox="0 0 489 40" fill="none" xmlns="http://www.w3.org/2000/svg">
        <path d="M20.1588 0.890296C25.4218 0.890296 29.9564 2.7621 33.7627 6.50572L28.3352 11.9332C26.0327 9.66195 23.3228 8.52634 20.2058 8.52634C17.026 8.52634 14.3162 9.66195 12.0763 11.9332C9.82076 14.1888 8.69297 16.9064 8.69297 20.0861C8.69297 23.2659 9.82076 25.9835 12.0763 28.2391C14.3006 30.4946 17.0104 31.6224 20.2058 31.6224C22.5553 31.6224 24.6934 30.9645 26.62 29.6488C28.39 28.4427 29.7136 26.892 30.5908 24.9967H19.7829V17.7366H39.2371C39.7384 24.2057 37.8979 29.5157 33.7157 33.6665C29.9407 37.4102 25.4139 39.282 20.1353 39.282C14.8096 39.282 10.2907 37.4102 6.57838 33.6665C2.81909 29.9386 0.939453 25.4118 0.939453 20.0861C0.939453 14.8075 2.81909 10.2728 6.57838 6.48223C10.3063 2.70728 14.8253 0.81981 20.1353 0.81981L20.1588 0.890296Z" fill="#272525"/>
        <path d="M53.2066 1.12525H60.8192V39H53.2066V1.12525Z" fill="#272525"/>
        <path d="M98.942 1.03127V8.62032H83.717V16.2564H95.1358V23.8454H83.717V39.047H76.1044V1.03127H98.942Z" fill="#272525"/>
        <path d="M137.676 1.12525V8.66731H128.372V39H120.736V8.66731H111.408V1.12525H137.676Z" fill="#272525"/>
        <path d="M162.101 31.5519C163.197 31.5519 164.2 31.1682 165.108 30.4007C166.048 29.6175 166.518 28.7168 166.518 27.6987C166.518 26.2263 165.641 25.0985 163.886 24.3153C163.307 24.049 162.516 23.7749 161.513 23.493L160.903 23.3285L160.339 23.164C159.9 23.0544 159.54 22.9526 159.258 22.8586C156.783 22.0128 154.762 20.7048 153.196 18.9348C151.442 16.9769 150.564 14.7761 150.564 12.3326C150.564 9.13722 151.7 6.41174 153.971 4.15617C156.227 1.91627 158.952 0.796314 162.148 0.796314C165.046 0.796314 167.575 1.7518 169.737 3.66277C171.898 5.54241 173.175 7.89979 173.567 10.7349L166.001 12.3326C166.001 11.2831 165.625 10.3825 164.873 9.63063C164.121 8.87877 163.229 8.50284 162.195 8.50284C161.13 8.50284 160.221 8.87877 159.469 9.63063C158.702 10.3981 158.318 11.3066 158.318 12.3561C158.318 13.8285 159.148 15.0033 160.809 15.8804C161.419 16.2094 162.179 16.5148 163.088 16.7968C163.385 16.8907 163.761 17.0082 164.215 17.1492L164.756 17.2902L165.273 17.4546C167.842 18.1908 169.94 19.4204 171.569 21.1434C173.371 23.0387 174.271 25.2395 174.271 27.7457C174.271 30.8941 173.05 33.6117 170.606 35.8986C168.21 38.1542 165.398 39.282 162.171 39.282C159.227 39.282 156.595 38.3343 154.277 36.439C151.959 34.528 150.58 32.1628 150.142 29.3434L157.707 27.7457C157.707 28.7638 158.177 29.6645 159.117 30.4476C160.025 31.1995 161.036 31.5754 162.148 31.5754L162.101 31.5519Z" fill="#272525"/>
        <path d="M229.066 10.8289C228.909 10.1554 228.572 9.59147 228.056 9.13722C227.492 8.66731 226.842 8.43235 226.105 8.43235C224.429 8.43235 223.45 9.18421 223.168 10.6879C223.09 11.0952 223.356 11.8862 223.967 13.061C224.86 14.7996 225.8 16.3268 226.787 17.6426C227.351 18.4101 228.118 19.3029 229.089 20.3211L230.382 21.6603C230.93 22.2399 231.392 22.7255 231.768 23.117C232.645 24.0725 233.334 24.7696 233.835 25.2081C233.976 24.5346 234.07 23.7279 234.117 22.7881C234.133 22.4905 234.149 22.0598 234.164 21.4959L234.188 20.8145L234.211 20.0861L241.33 19.9921C241.221 24.4406 240.696 27.7065 239.756 29.7898L240.015 29.9542L240.297 30.1422C240.532 30.2832 240.735 30.4085 240.908 30.5181C241.409 30.8157 241.863 31.0664 242.27 31.27C243.414 31.8339 244.424 32.1002 245.301 32.0688L245.278 39.1175C243.649 39.1175 242.012 38.7886 240.367 38.1307C239.741 37.8644 239.075 37.5433 238.37 37.1674C238.088 37.0107 237.783 36.8384 237.454 36.6505C237.25 36.5252 236.968 36.3529 236.608 36.1336C236.169 35.8829 235.786 35.6088 235.457 35.3112C234.047 36.9246 232.089 38.0524 229.583 38.6946C227.797 39.1488 226.184 39.3759 224.743 39.3759C221.218 39.3759 218.234 38.1855 215.791 35.8046C213.363 33.4551 212.149 30.5886 212.149 27.2053C212.196 25.0124 212.752 23.2345 213.817 21.8718C214.882 20.509 216.002 19.2638 217.177 18.136C217.287 18.0264 217.498 17.8541 217.811 17.6191C217.232 16.8203 216.699 15.763 216.214 14.4472C215.681 13.0218 215.399 11.7531 215.368 10.6409C215.368 8.24439 216.331 6.0828 218.258 4.15617C219.104 3.31033 220.224 2.55065 221.618 1.87711C223.231 1.10959 224.727 0.725828 226.105 0.725828C228.706 0.725828 231.008 1.5795 233.013 3.28684C234.893 4.88453 236.099 6.86599 236.631 9.2312L229.066 10.8289ZM224.766 31.9279C225.534 31.9279 226.45 31.7556 227.515 31.411C228.643 31.035 229.34 30.6434 229.606 30.2362V30.2597C229.168 29.8838 228.118 28.9439 226.458 27.4402C224.782 25.9365 223.419 24.3153 222.37 22.5767C221.68 23.0779 220.999 23.6653 220.325 24.3388C219.652 25.0124 219.339 26.007 219.386 27.3227C219.386 27.965 219.566 28.6385 219.926 29.3434C220.239 29.9386 220.615 30.4398 221.054 30.8471C221.79 31.5676 223.027 31.9279 224.766 31.9279Z" fill="#272525"/>
        <path d="M303.15 25.6781L321.688 0.232422V39H314.075V23.305L303.15 38.3891L292.201 23.305V39H284.589V0.232422L303.15 25.6781Z" fill="#272525"/>
        <path d="M359.834 1.03127V8.62032H344.609V16.2564H356.028V23.8454H344.609V31.4815H359.834V39.047H336.997V1.03127H359.834Z" fill="#272525"/>
        <path d="M373.71 1.12525H386.068C390.078 1.12525 393.383 2.40967 395.984 4.97852C397.252 6.24727 398.153 7.44554 398.686 8.57333C399.328 9.95173 399.649 11.6199 399.649 13.5779V14.5647C399.649 17.1179 398.85 19.5222 397.252 21.7778C396.109 23.3755 394.597 24.5424 392.718 25.2786L401.529 39H392.224L381.346 22.2477V39H373.733L373.71 1.12525ZM386.797 19.1463C388.175 19.1463 389.358 18.6216 390.345 17.5721C391.316 16.5226 391.801 15.2695 391.801 13.8128C391.801 12.4344 391.3 11.2205 390.298 10.171C389.264 9.16855 387.697 8.66731 385.599 8.66731H381.322V19.1228H384.259V19.1463H386.797Z" fill="#272525"/>
        <path d="M446.818 33.6665C443.058 37.3945 438.516 39.2585 433.19 39.2585C427.896 39.2428 423.377 37.3788 419.633 33.6665C415.874 29.9073 413.994 25.3804 413.994 20.0861C413.994 14.8075 415.874 10.2728 419.633 6.48223C423.408 2.70728 427.927 0.81981 433.19 0.81981L433.167 0.913792C438.367 0.913792 442.909 2.7856 446.794 6.52922L441.367 11.9567C439.08 9.70111 436.362 8.57333 433.214 8.57333C430.018 8.57333 427.308 9.70111 425.084 11.9567C422.829 14.2436 421.701 16.9612 421.701 20.1096C421.701 23.2893 422.829 26.007 425.084 28.2626C427.324 30.5025 430.034 31.6224 433.214 31.6224C436.409 31.6224 439.134 30.4946 441.39 28.2391L446.818 33.6665Z" fill="#272525"/>
        <path d="M468.306 1.12525V16.2799H480.97V1.12525H488.559V39H480.97V23.8219H468.306V39H460.717V1.12525H468.306Z" fill="#272525"/>
    </symbol>

    <symbol id="search"  viewBox="0 0 24 24" fill="none" xmlns="http://www.w3.org/2000/svg">
        <g id="search">
            <path id="search_2" fill-rule="evenodd" clip-rule="evenodd" d="M18.319 14.4326C20.7628 11.2941 20.542 6.75347 17.6569 3.86829C14.5327 0.744098 9.46734 0.744098 6.34315 3.86829C3.21895 6.99249 3.21895 12.0578 6.34315 15.182C9.22833 18.0672 13.769 18.2879 16.9075 15.8442C16.921 15.8595 16.9351 15.8745 16.9497 15.8891L21.1924 20.1317C21.5829 20.5223 22.2161 20.5223 22.6066 20.1317C22.9971 19.7412 22.9971 19.1081 22.6066 18.7175L18.364 14.4749C18.3493 14.4603 18.3343 14.4462 18.319 14.4326ZM16.2426 5.28251C18.5858 7.62565 18.5858 11.4246 16.2426 13.7678C13.8995 16.1109 10.1005 16.1109 7.75736 13.7678C5.41421 11.4246 5.41421 7.62565 7.75736 5.28251C10.1005 2.93936 13.8995 2.93936 16.2426 5.28251Z" fill="#8E8E8E"/>
        </g>
    </symbol>

    <symbol id="user"  viewBox="0 0 40 40" fill="none" xmlns="http://www.w3.org/2000/svg">
        <g id=" user">
            <path id="&#240;&#159;&#140;&#136; COLOR" fill-rule="evenodd" clip-rule="evenodd" d="M26.181 21.1831C29.5304 18.5479 30.8417 14.0795 29.4473 10.0522C28.053 6.025 24.2595 3.32397 19.9977 3.32397C15.7359 3.32397 11.9424 6.025 10.5481 10.0522C9.15371 14.0795 10.465 18.5479 13.8144 21.1831C8.10953 23.4687 4.12539 28.7083 3.4477 34.8165C3.34645 35.7369 4.01056 36.5652 4.93103 36.6665C5.85151 36.7677 6.67978 36.1036 6.78103 35.1831C7.53875 28.4377 13.2432 23.3382 20.031 23.3382C26.8189 23.3382 32.5233 28.4377 33.281 35.1831C33.3749 36.0314 34.0943 36.6716 34.9477 36.6665H35.131C36.0404 36.5618 36.6952 35.7433 36.5977 34.8331C35.9167 28.707 31.9102 23.4569 26.181 21.1831ZM19.9948 19.9995C16.3129 19.9995 13.3281 17.0148 13.3281 13.3329C13.3281 9.65097 16.3129 6.6662 19.9948 6.6662C23.6767 6.6662 26.6615 9.65097 26.6615 13.3329C26.6615 15.101 25.9591 16.7967 24.7088 18.0469C23.4586 19.2972 21.7629 19.9995 19.9948 19.9995Z" fill="#272525"/>
        </g>
    </symbol>

    <symbol id="circle" viewBox="0 0 109 94" fill="none" xmlns="http://www.w3.org/2000/svg">
        <circle cx="49.2776" cy="42.7796" r="42.7796" fill="#EACEFF"/>
        <path d="M106.633 28.7452C105.726 28.2154 104.947 27.7859 104.196 27.3143C102.919 26.5197 101.694 25.6781 100.83 24.3926C99.9543 23.0875 99.8556 21.7257 100.655 20.4114C101.147 19.6051 101.856 18.9344 102.493 18.2275C102.743 17.9525 103.075 17.7434 103.506 17.3899C102.679 17.345 102.029 17.3199 101.381 17.2676C99.7969 17.1465 98.2063 17.09 96.6392 16.8633C94.4903 16.5634 93.5258 15.1793 93.9033 13.029C94.0519 12.186 94.4083 11.371 94.6795 10.5442C94.7625 10.296 94.8802 10.0627 95.0014 9.77514C93.5588 10.2163 92.1939 10.6562 90.8221 11.0391C87.6201 11.9304 86.4291 9.64128 86.7339 7.3502C86.8154 6.73743 87.0492 6.13241 87.2672 5.54521C87.4263 5.15743 87.772 4.89691 88.1983 5.07733C88.586 5.23641 88.6027 5.62715 88.5109 6.0109C88.4257 6.39087 88.3133 6.7691 88.272 7.14981C88.2244 7.59507 88.1806 8.04685 88.2209 8.49358C88.3369 9.74965 88.9563 10.2798 90.2083 10.0966C91.0922 9.96926 91.9615 9.71108 92.8216 9.46696C93.6218 9.23994 94.4163 8.97274 95.2107 8.70555C95.6215 8.57282 96.0399 8.45316 96.3938 8.77975C96.8012 9.15379 96.6397 9.61264 96.4929 10.0368C96.3092 10.5781 96.046 11.0869 95.8932 11.6364C95.6915 12.3273 95.5039 13.0275 95.4145 13.7319C95.2963 14.688 95.6013 15.156 96.5345 15.4005C97.4266 15.634 98.353 15.8216 99.2734 15.9082C101.246 16.0836 103.215 16.1917 105.19 16.296C105.657 16.322 106.032 16.4278 106.191 16.8843C106.345 17.3175 106.097 17.6262 105.768 17.8857C105.181 18.3464 104.566 18.7886 104.004 19.2782C103.514 19.7096 103.017 20.1615 102.616 20.6719C101.539 22.0333 101.593 23.1513 102.699 24.4796C103.529 25.4801 104.526 26.2881 105.624 26.9686C106.414 27.4615 107.234 27.902 108.038 28.3603C108.465 28.6015 108.905 28.8519 108.819 29.4413C108.731 29.9971 108.262 30.1806 107.795 30.3369C107.596 30.3995 107.389 30.4322 107.185 30.4715C106.774 30.5434 106.362 30.6425 105.945 30.6743C102.846 30.9312 101.306 32.8912 100.529 35.6462C100.387 36.1545 100.404 36.7108 100.365 37.2467C100.344 37.5113 100.401 37.7916 100.349 38.048C100.316 38.2323 100.186 38.49 100.044 38.529C99.8877 38.5755 99.6365 38.442 99.4921 38.3426C99.1816 38.1214 98.9871 37.6941 98.9388 37.339C98.8459 36.6354 98.7949 35.8989 98.9087 35.2065C99.1543 33.6721 99.8457 32.3068 100.781 31.0619C101.578 30.0009 102.689 29.4378 103.953 29.1694C104.781 29.0049 105.612 28.9077 106.633 28.7452Z" fill="#EACEFF"/>
        <path d="M16.2266 91.1562C16.0468 90.1218 15.9166 89.242 15.7371 88.3735C15.4386 86.8994 15.0783 85.4569 14.1757 84.1982C13.2586 82.9221 12.0171 82.3539 10.5064 82.6435C9.57904 82.8228 8.70272 83.2532 7.81808 83.6025C7.47291 83.7409 7.16109 83.9789 6.67921 84.2595C6.92592 83.4692 7.12941 82.8515 7.30687 82.2259C7.74699 80.6991 8.24976 79.1889 8.58477 77.6414C9.05453 75.5231 8.09459 74.1358 5.94797 73.7383C5.1061 73.583 4.21796 73.6322 3.34853 73.5974C3.08702 73.5886 2.82727 73.6173 2.51548 73.6304C3.43284 72.4329 4.32189 71.3076 5.1599 70.1561C7.11367 67.4672 5.38493 65.5515 3.1317 65.0367C2.52911 64.8989 1.8805 64.9067 1.25413 64.9058C0.835207 64.9194 0.470321 65.1523 0.490468 65.6147C0.504053 66.0336 0.864337 66.1858 1.25597 66.2339C1.64178 66.2867 2.03544 66.3136 2.4066 66.4079C2.84041 66.5188 3.27903 66.6356 3.68353 66.8295C4.81995 67.3769 5.10031 68.1426 4.49121 69.2517C4.06308 70.0354 3.51747 70.7597 2.98827 71.4803C2.49598 72.1508 1.96806 72.8018 1.44014 73.4529C1.17227 73.7914 0.913988 74.1416 1.09635 74.5873C1.30448 75.0998 1.79086 75.1087 2.2396 75.1194C2.81088 75.1364 3.37965 75.0675 3.9479 75.1163C4.66572 75.1687 5.38734 75.2375 6.07861 75.3999C7.01573 75.6231 7.34767 76.0724 7.25076 77.0323C7.1579 77.9497 7.00996 78.8833 6.76954 79.7759C6.24473 81.6855 5.65827 83.5678 5.066 85.4549C4.92696 85.9021 4.89533 86.29 5.26746 86.5985C5.61939 86.8945 5.99538 86.7697 6.35344 86.5522C6.99022 86.1632 7.61943 85.7413 8.2744 85.3862C8.85002 85.077 9.44687 84.7698 10.0654 84.5718C11.7172 84.0387 12.746 84.4795 13.6041 85.9802C14.2515 87.1074 14.6602 88.3243 14.9142 89.5908C15.1003 90.5027 15.2265 91.4249 15.3749 92.3386C15.4519 92.8225 15.5327 93.3228 16.1151 93.4479C16.6666 93.5594 17.0022 93.1845 17.3118 92.8018C17.4399 92.6373 17.5431 92.4544 17.651 92.2773C17.862 91.9172 18.0991 91.5651 18.2745 91.1856C19.5976 88.3723 21.9723 87.6136 24.8251 87.8482C25.3509 87.893 25.8663 88.1028 26.382 88.2538C26.6375 88.3263 26.88 88.4779 27.1385 88.5187C27.3227 88.5523 27.6094 88.5207 27.6959 88.4005C27.7939 88.2706 27.7566 87.9886 27.7139 87.8186C27.6152 87.4504 27.2827 87.1189 26.9669 86.9496C26.3401 86.6167 25.6677 86.3116 24.9792 86.1764C23.4557 85.8704 21.9349 86.0413 20.4418 86.4825C19.169 86.859 18.2532 87.7033 17.5603 88.7937C17.117 89.5117 16.7353 90.2571 16.2266 91.1562Z" fill="#EACEFF"/>
    </symbol>

    <symbol id="wave"  viewBox="0 0 1920 889" fill="none" xmlns="http://www.w3.org/2000/svg">
        <path d="M-0.00180054 41.3877C965.5 -66.1127 1747.8 78.4584 1921 5.38818V808.888C1355 990.387 383.5 794.888 -9.49976 866.888C-9.49976 866.888 -965.503 148.888 -0.00180054 41.3877Z" fill="#EEF1F6"/>
    </symbol>





</svg>